<mxfile host="app.diagrams.net" agent="Mozilla/5.0 (Windows NT 10.0; Win64; x64) AppleWebKit/537.36 (KHTML, like Gecko) Chrome/130.0.0.0 Safari/537.36" version="24.8.4">
  <diagram id="C5RBs43oDa-KdzZeNtuy" name="Page-1">
    <mxGraphModel dx="737" dy="1977" grid="1" gridSize="10" guides="1" tooltips="1" connect="1" arrows="1" fold="1" page="1" pageScale="1" pageWidth="827" pageHeight="1169" math="0" shadow="0">
      <root>
        <mxCell id="WIyWlLk6GJQsqaUBKTNV-0" />
        <mxCell id="WIyWlLk6GJQsqaUBKTNV-1" parent="WIyWlLk6GJQsqaUBKTNV-0" />
        <mxCell id="g8ziXp4ras8LX38dk12a-0" value="" style="rounded=1;whiteSpace=wrap;html=1;" parent="WIyWlLk6GJQsqaUBKTNV-1" vertex="1">
          <mxGeometry x="760" y="-20" width="180" height="190" as="geometry" />
        </mxCell>
        <mxCell id="g8ziXp4ras8LX38dk12a-1" value="" style="endArrow=none;html=1;rounded=0;entryX=1;entryY=0.25;entryDx=0;entryDy=0;exitX=0;exitY=0.25;exitDx=0;exitDy=0;" parent="WIyWlLk6GJQsqaUBKTNV-1" source="g8ziXp4ras8LX38dk12a-0" target="g8ziXp4ras8LX38dk12a-0" edge="1">
          <mxGeometry width="50" height="50" relative="1" as="geometry">
            <mxPoint x="780" y="90" as="sourcePoint" />
            <mxPoint x="830" y="40" as="targetPoint" />
          </mxGeometry>
        </mxCell>
        <mxCell id="g8ziXp4ras8LX38dk12a-2" value="" style="rounded=1;whiteSpace=wrap;html=1;" parent="WIyWlLk6GJQsqaUBKTNV-1" vertex="1">
          <mxGeometry x="1220" y="510" width="190" height="200" as="geometry" />
        </mxCell>
        <mxCell id="g8ziXp4ras8LX38dk12a-3" value="" style="endArrow=none;html=1;rounded=0;entryX=1;entryY=0.25;entryDx=0;entryDy=0;exitX=0;exitY=0.25;exitDx=0;exitDy=0;" parent="WIyWlLk6GJQsqaUBKTNV-1" source="g8ziXp4ras8LX38dk12a-2" target="g8ziXp4ras8LX38dk12a-2" edge="1">
          <mxGeometry width="50" height="50" relative="1" as="geometry">
            <mxPoint x="1050" y="-70" as="sourcePoint" />
            <mxPoint x="1100" y="-120" as="targetPoint" />
          </mxGeometry>
        </mxCell>
        <mxCell id="g8ziXp4ras8LX38dk12a-72" value="" style="edgeStyle=orthogonalEdgeStyle;rounded=0;orthogonalLoop=1;jettySize=auto;html=1;" parent="WIyWlLk6GJQsqaUBKTNV-1" source="g8ziXp4ras8LX38dk12a-4" target="g8ziXp4ras8LX38dk12a-25" edge="1">
          <mxGeometry relative="1" as="geometry" />
        </mxCell>
        <mxCell id="g8ziXp4ras8LX38dk12a-4" value="" style="rounded=1;whiteSpace=wrap;html=1;" parent="WIyWlLk6GJQsqaUBKTNV-1" vertex="1">
          <mxGeometry x="460" y="-40" width="200" height="260" as="geometry" />
        </mxCell>
        <mxCell id="g8ziXp4ras8LX38dk12a-5" value="" style="endArrow=none;html=1;rounded=0;entryX=1;entryY=0.25;entryDx=0;entryDy=0;exitX=0;exitY=0.25;exitDx=0;exitDy=0;" parent="WIyWlLk6GJQsqaUBKTNV-1" edge="1">
          <mxGeometry width="50" height="50" relative="1" as="geometry">
            <mxPoint x="460" y="10" as="sourcePoint" />
            <mxPoint x="660" y="10" as="targetPoint" />
            <Array as="points">
              <mxPoint x="560" y="10" />
            </Array>
          </mxGeometry>
        </mxCell>
        <mxCell id="g8ziXp4ras8LX38dk12a-6" value="" style="rounded=1;whiteSpace=wrap;html=1;" parent="WIyWlLk6GJQsqaUBKTNV-1" vertex="1">
          <mxGeometry x="985" y="235" width="180" height="200" as="geometry" />
        </mxCell>
        <mxCell id="g8ziXp4ras8LX38dk12a-7" value="" style="endArrow=none;html=1;rounded=0;entryX=1;entryY=0.25;entryDx=0;entryDy=0;exitX=0;exitY=0.25;exitDx=0;exitDy=0;" parent="WIyWlLk6GJQsqaUBKTNV-1" source="g8ziXp4ras8LX38dk12a-6" target="g8ziXp4ras8LX38dk12a-6" edge="1">
          <mxGeometry width="50" height="50" relative="1" as="geometry">
            <mxPoint x="1255" y="165" as="sourcePoint" />
            <mxPoint x="1305" y="115" as="targetPoint" />
          </mxGeometry>
        </mxCell>
        <mxCell id="g8ziXp4ras8LX38dk12a-8" value="" style="rounded=1;whiteSpace=wrap;html=1;" parent="WIyWlLk6GJQsqaUBKTNV-1" vertex="1">
          <mxGeometry x="195" y="242.5" width="190" height="205" as="geometry" />
        </mxCell>
        <mxCell id="g8ziXp4ras8LX38dk12a-9" value="" style="endArrow=none;html=1;rounded=0;entryX=1;entryY=0.25;entryDx=0;entryDy=0;exitX=0;exitY=0.25;exitDx=0;exitDy=0;" parent="WIyWlLk6GJQsqaUBKTNV-1" source="g8ziXp4ras8LX38dk12a-8" target="g8ziXp4ras8LX38dk12a-8" edge="1">
          <mxGeometry width="50" height="50" relative="1" as="geometry">
            <mxPoint x="-195" y="742.5" as="sourcePoint" />
            <mxPoint x="-145" y="692.5" as="targetPoint" />
          </mxGeometry>
        </mxCell>
        <mxCell id="g8ziXp4ras8LX38dk12a-12" value="" style="rounded=1;whiteSpace=wrap;html=1;" parent="WIyWlLk6GJQsqaUBKTNV-1" vertex="1">
          <mxGeometry x="1700" y="510" width="190" height="200" as="geometry" />
        </mxCell>
        <mxCell id="g8ziXp4ras8LX38dk12a-13" value="" style="endArrow=none;html=1;rounded=0;entryX=1;entryY=0.25;entryDx=0;entryDy=0;exitX=0;exitY=0.25;exitDx=0;exitDy=0;" parent="WIyWlLk6GJQsqaUBKTNV-1" source="g8ziXp4ras8LX38dk12a-12" target="g8ziXp4ras8LX38dk12a-12" edge="1">
          <mxGeometry width="50" height="50" relative="1" as="geometry">
            <mxPoint x="1300" y="-100" as="sourcePoint" />
            <mxPoint x="1350" y="-150" as="targetPoint" />
          </mxGeometry>
        </mxCell>
        <mxCell id="g8ziXp4ras8LX38dk12a-14" value="" style="rounded=1;whiteSpace=wrap;html=1;" parent="WIyWlLk6GJQsqaUBKTNV-1" vertex="1">
          <mxGeometry x="985" y="510" width="185" height="200" as="geometry" />
        </mxCell>
        <mxCell id="g8ziXp4ras8LX38dk12a-15" value="" style="endArrow=none;html=1;rounded=0;entryX=1;entryY=0.25;entryDx=0;entryDy=0;exitX=0;exitY=0.25;exitDx=0;exitDy=0;" parent="WIyWlLk6GJQsqaUBKTNV-1" source="g8ziXp4ras8LX38dk12a-14" target="g8ziXp4ras8LX38dk12a-14" edge="1">
          <mxGeometry width="50" height="50" relative="1" as="geometry">
            <mxPoint x="1330" y="270" as="sourcePoint" />
            <mxPoint x="1380" y="220" as="targetPoint" />
          </mxGeometry>
        </mxCell>
        <mxCell id="g8ziXp4ras8LX38dk12a-81" value="" style="edgeStyle=orthogonalEdgeStyle;rounded=0;orthogonalLoop=1;jettySize=auto;html=1;entryX=0.476;entryY=1.002;entryDx=0;entryDy=0;entryPerimeter=0;" parent="WIyWlLk6GJQsqaUBKTNV-1" source="g8ziXp4ras8LX38dk12a-16" target="g8ziXp4ras8LX38dk12a-4" edge="1">
          <mxGeometry relative="1" as="geometry" />
        </mxCell>
        <mxCell id="g8ziXp4ras8LX38dk12a-16" value="" style="rounded=1;whiteSpace=wrap;html=1;" parent="WIyWlLk6GJQsqaUBKTNV-1" vertex="1">
          <mxGeometry x="460" y="275" width="190" height="185" as="geometry" />
        </mxCell>
        <mxCell id="g8ziXp4ras8LX38dk12a-17" value="" style="endArrow=none;html=1;rounded=0;entryX=1;entryY=0.25;entryDx=0;entryDy=0;exitX=0;exitY=0.25;exitDx=0;exitDy=0;" parent="WIyWlLk6GJQsqaUBKTNV-1" source="g8ziXp4ras8LX38dk12a-16" target="g8ziXp4ras8LX38dk12a-16" edge="1">
          <mxGeometry width="50" height="50" relative="1" as="geometry">
            <mxPoint x="60" y="1105" as="sourcePoint" />
            <mxPoint x="110" y="1055" as="targetPoint" />
          </mxGeometry>
        </mxCell>
        <mxCell id="g8ziXp4ras8LX38dk12a-71" value="" style="edgeStyle=orthogonalEdgeStyle;rounded=0;orthogonalLoop=1;jettySize=auto;html=1;entryX=0;entryY=0.5;entryDx=0;entryDy=0;" parent="WIyWlLk6GJQsqaUBKTNV-1" source="g8ziXp4ras8LX38dk12a-18" target="g8ziXp4ras8LX38dk12a-4" edge="1">
          <mxGeometry relative="1" as="geometry">
            <mxPoint x="690" y="-60" as="targetPoint" />
          </mxGeometry>
        </mxCell>
        <mxCell id="g8ziXp4ras8LX38dk12a-18" value="" style="rounded=1;whiteSpace=wrap;html=1;" parent="WIyWlLk6GJQsqaUBKTNV-1" vertex="1">
          <mxGeometry x="200" width="190" height="190" as="geometry" />
        </mxCell>
        <mxCell id="g8ziXp4ras8LX38dk12a-19" value="" style="endArrow=none;html=1;rounded=0;entryX=1;entryY=0.25;entryDx=0;entryDy=0;exitX=0;exitY=0.25;exitDx=0;exitDy=0;" parent="WIyWlLk6GJQsqaUBKTNV-1" source="g8ziXp4ras8LX38dk12a-18" target="g8ziXp4ras8LX38dk12a-18" edge="1">
          <mxGeometry width="50" height="50" relative="1" as="geometry">
            <mxPoint x="50" y="160" as="sourcePoint" />
            <mxPoint x="100" y="110" as="targetPoint" />
          </mxGeometry>
        </mxCell>
        <mxCell id="g8ziXp4ras8LX38dk12a-20" value="" style="rounded=1;whiteSpace=wrap;html=1;" parent="WIyWlLk6GJQsqaUBKTNV-1" vertex="1">
          <mxGeometry x="720" y="225" width="190" height="220" as="geometry" />
        </mxCell>
        <mxCell id="g8ziXp4ras8LX38dk12a-21" value="" style="endArrow=none;html=1;rounded=0;entryX=1;entryY=0.25;entryDx=0;entryDy=0;exitX=0;exitY=0.25;exitDx=0;exitDy=0;" parent="WIyWlLk6GJQsqaUBKTNV-1" source="g8ziXp4ras8LX38dk12a-20" target="g8ziXp4ras8LX38dk12a-20" edge="1">
          <mxGeometry width="50" height="50" relative="1" as="geometry">
            <mxPoint x="1380" y="345" as="sourcePoint" />
            <mxPoint x="1430" y="295" as="targetPoint" />
          </mxGeometry>
        </mxCell>
        <mxCell id="g8ziXp4ras8LX38dk12a-22" value="" style="rounded=1;whiteSpace=wrap;html=1;" parent="WIyWlLk6GJQsqaUBKTNV-1" vertex="1">
          <mxGeometry x="1470" y="510" width="180" height="200" as="geometry" />
        </mxCell>
        <mxCell id="g8ziXp4ras8LX38dk12a-23" value="" style="endArrow=none;html=1;rounded=0;entryX=1;entryY=0.25;entryDx=0;entryDy=0;exitX=0;exitY=0.25;exitDx=0;exitDy=0;" parent="WIyWlLk6GJQsqaUBKTNV-1" source="g8ziXp4ras8LX38dk12a-22" target="g8ziXp4ras8LX38dk12a-22" edge="1">
          <mxGeometry width="50" height="50" relative="1" as="geometry">
            <mxPoint x="1590" y="610" as="sourcePoint" />
            <mxPoint x="1640" y="560" as="targetPoint" />
          </mxGeometry>
        </mxCell>
        <mxCell id="g8ziXp4ras8LX38dk12a-24" value="UserInterface()" style="text;html=1;align=center;verticalAlign=middle;whiteSpace=wrap;rounded=0;" parent="WIyWlLk6GJQsqaUBKTNV-1" vertex="1">
          <mxGeometry x="820" y="-10" width="60" height="30" as="geometry" />
        </mxCell>
        <mxCell id="g8ziXp4ras8LX38dk12a-25" value="main()&lt;div&gt;startNewOrder()&lt;/div&gt;&lt;div&gt;//switch cases&lt;/div&gt;&lt;div style=&quot;&quot;&gt;&lt;br&gt;&lt;/div&gt;" style="text;html=1;align=left;verticalAlign=middle;whiteSpace=wrap;rounded=0;" parent="WIyWlLk6GJQsqaUBKTNV-1" vertex="1">
          <mxGeometry x="761" y="30" width="180" height="110" as="geometry" />
        </mxCell>
        <mxCell id="g8ziXp4ras8LX38dk12a-58" value="" style="edgeStyle=orthogonalEdgeStyle;rounded=0;orthogonalLoop=1;jettySize=auto;html=1;entryX=1;entryY=0.75;entryDx=0;entryDy=0;exitX=0;exitY=0.447;exitDx=0;exitDy=0;exitPerimeter=0;" parent="WIyWlLk6GJQsqaUBKTNV-1" source="g8ziXp4ras8LX38dk12a-27" target="g8ziXp4ras8LX38dk12a-4" edge="1">
          <mxGeometry relative="1" as="geometry" />
        </mxCell>
        <mxCell id="g8ziXp4ras8LX38dk12a-26" value="Sandwich()" style="text;html=1;align=center;verticalAlign=middle;whiteSpace=wrap;rounded=0;" parent="WIyWlLk6GJQsqaUBKTNV-1" vertex="1">
          <mxGeometry x="742.5" y="220" width="145" height="70" as="geometry" />
        </mxCell>
        <mxCell id="g8ziXp4ras8LX38dk12a-27" value="size : String&lt;div&gt;bread : String&lt;/div&gt;&lt;div&gt;toasted : boolean&lt;/div&gt;&lt;div&gt;&lt;span style=&quot;background-color: initial;&quot;&gt;-----------------------------------------------Sandwich()&lt;/span&gt;&lt;/div&gt;&lt;div&gt;addToppings()&lt;span style=&quot;background-color: initial;&quot;&gt;&lt;/span&gt;&lt;/div&gt;&lt;div&gt;&lt;span style=&quot;background-color: initial;&quot;&gt;calcTotalPrice()&lt;/span&gt;&lt;/div&gt;&lt;div&gt;&lt;span style=&quot;background-color: initial;&quot;&gt;Override toString()&lt;/span&gt;&lt;/div&gt;" style="text;html=1;align=left;verticalAlign=middle;whiteSpace=wrap;rounded=0;" parent="WIyWlLk6GJQsqaUBKTNV-1" vertex="1">
          <mxGeometry x="720" y="255" width="190" height="190" as="geometry" />
        </mxCell>
        <mxCell id="g8ziXp4ras8LX38dk12a-28" value="Toppings()&amp;nbsp;" style="text;html=1;align=center;verticalAlign=middle;whiteSpace=wrap;rounded=0;" parent="WIyWlLk6GJQsqaUBKTNV-1" vertex="1">
          <mxGeometry x="1045" y="245" width="60" height="30" as="geometry" />
        </mxCell>
        <mxCell id="T7qCCyKu4dgyO4CXp2os-2" value="" style="edgeStyle=orthogonalEdgeStyle;rounded=0;orthogonalLoop=1;jettySize=auto;html=1;" parent="WIyWlLk6GJQsqaUBKTNV-1" source="g8ziXp4ras8LX38dk12a-29" target="g8ziXp4ras8LX38dk12a-27" edge="1">
          <mxGeometry relative="1" as="geometry" />
        </mxCell>
        <mxCell id="g8ziXp4ras8LX38dk12a-29" value="&lt;div style=&quot;text-align: left;&quot;&gt;&lt;span style=&quot;background-color: initial;&quot;&gt;name : String&amp;nbsp;&lt;/span&gt;&lt;/div&gt;&lt;div style=&quot;text-align: left;&quot;&gt;&lt;span style=&quot;background-color: initial;&quot;&gt;toppings : List&amp;lt;Toppings&amp;gt;&lt;/span&gt;&lt;/div&gt;&lt;div style=&quot;text-align: left;&quot;&gt;--------------------------------------------&lt;/div&gt;&lt;div style=&quot;text-align: left;&quot;&gt;addToppingType()&lt;/div&gt;&lt;div style=&quot;text-align: left;&quot;&gt;calcToppingPrice()&lt;/div&gt;&lt;div style=&quot;text-align: left;&quot;&gt;&lt;br&gt;&lt;/div&gt;" style="text;html=1;align=center;verticalAlign=middle;whiteSpace=wrap;rounded=0;" parent="WIyWlLk6GJQsqaUBKTNV-1" vertex="1">
          <mxGeometry x="980" y="285" width="190" height="100" as="geometry" />
        </mxCell>
        <mxCell id="g8ziXp4ras8LX38dk12a-31" value="MeatTopping()&lt;div&gt;//extends Topping&lt;/div&gt;" style="text;html=1;align=center;verticalAlign=middle;whiteSpace=wrap;rounded=0;" parent="WIyWlLk6GJQsqaUBKTNV-1" vertex="1">
          <mxGeometry x="1044" y="520" width="60" height="30" as="geometry" />
        </mxCell>
        <mxCell id="g8ziXp4ras8LX38dk12a-32" value="name : String&lt;div&gt;size : String&lt;/div&gt;&lt;div&gt;----------------------------------------------&lt;/div&gt;&lt;div&gt;getMeatTopping()&lt;/div&gt;&lt;div&gt;calcMeatToppingPrice()&lt;/div&gt;&lt;div&gt;&lt;br&gt;&lt;/div&gt;" style="text;html=1;align=left;verticalAlign=middle;whiteSpace=wrap;rounded=0;" parent="WIyWlLk6GJQsqaUBKTNV-1" vertex="1">
          <mxGeometry x="985" y="560" width="196" height="110" as="geometry" />
        </mxCell>
        <mxCell id="g8ziXp4ras8LX38dk12a-35" value="CheeseTopping()&lt;div&gt;//extends Toppings&lt;/div&gt;" style="text;html=1;align=center;verticalAlign=middle;whiteSpace=wrap;rounded=0;" parent="WIyWlLk6GJQsqaUBKTNV-1" vertex="1">
          <mxGeometry x="1285" y="520" width="60" height="30" as="geometry" />
        </mxCell>
        <mxCell id="g8ziXp4ras8LX38dk12a-36" value="name : String&lt;div&gt;size : String&lt;/div&gt;&lt;div&gt;----------------------------------------------&lt;/div&gt;&lt;div&gt;getCheeseTopping()&lt;/div&gt;&lt;div&gt;calcCheeseToppingPrice()&lt;/div&gt;&lt;div&gt;&lt;br&gt;&lt;/div&gt;" style="text;html=1;align=left;verticalAlign=middle;whiteSpace=wrap;rounded=0;" parent="WIyWlLk6GJQsqaUBKTNV-1" vertex="1">
          <mxGeometry x="1220" y="520" width="190" height="190" as="geometry" />
        </mxCell>
        <mxCell id="g8ziXp4ras8LX38dk12a-44" value="" style="endArrow=classic;html=1;rounded=0;exitX=0.5;exitY=0;exitDx=0;exitDy=0;" parent="WIyWlLk6GJQsqaUBKTNV-1" source="g8ziXp4ras8LX38dk12a-14" edge="1">
          <mxGeometry width="50" height="50" relative="1" as="geometry">
            <mxPoint x="1060" y="575" as="sourcePoint" />
            <mxPoint x="1075" y="440" as="targetPoint" />
          </mxGeometry>
        </mxCell>
        <mxCell id="g8ziXp4ras8LX38dk12a-46" value="" style="endArrow=none;html=1;rounded=0;entryX=0;entryY=0.5;entryDx=0;entryDy=0;exitX=1;exitY=0.5;exitDx=0;exitDy=0;" parent="WIyWlLk6GJQsqaUBKTNV-1" source="g8ziXp4ras8LX38dk12a-14" target="g8ziXp4ras8LX38dk12a-2" edge="1">
          <mxGeometry width="50" height="50" relative="1" as="geometry">
            <mxPoint x="1140" y="635" as="sourcePoint" />
            <mxPoint x="1190" y="585" as="targetPoint" />
          </mxGeometry>
        </mxCell>
        <mxCell id="g8ziXp4ras8LX38dk12a-47" value="RegularTopping()&lt;div&gt;//extends Toppings&lt;/div&gt;" style="text;html=1;align=center;verticalAlign=middle;whiteSpace=wrap;rounded=0;" parent="WIyWlLk6GJQsqaUBKTNV-1" vertex="1">
          <mxGeometry x="1530" y="520" width="60" height="30" as="geometry" />
        </mxCell>
        <mxCell id="g8ziXp4ras8LX38dk12a-49" value="name : String&lt;div&gt;---------------------------------------------&lt;/div&gt;&lt;div&gt;getRegularTopping()&lt;/div&gt;&lt;div&gt;calcRegularToppingPrice()&lt;/div&gt;&lt;div&gt;//return price 0&lt;/div&gt;" style="text;html=1;align=left;verticalAlign=middle;whiteSpace=wrap;rounded=0;" parent="WIyWlLk6GJQsqaUBKTNV-1" vertex="1">
          <mxGeometry x="1470" y="510" width="190" height="180" as="geometry" />
        </mxCell>
        <mxCell id="g8ziXp4ras8LX38dk12a-50" value="" style="endArrow=none;html=1;rounded=0;entryX=0.005;entryY=0.527;entryDx=0;entryDy=0;exitX=1;exitY=0.5;exitDx=0;exitDy=0;entryPerimeter=0;" parent="WIyWlLk6GJQsqaUBKTNV-1" source="g8ziXp4ras8LX38dk12a-36" target="g8ziXp4ras8LX38dk12a-22" edge="1">
          <mxGeometry width="50" height="50" relative="1" as="geometry">
            <mxPoint x="1400" y="610" as="sourcePoint" />
            <mxPoint x="1450" y="560" as="targetPoint" />
          </mxGeometry>
        </mxCell>
        <mxCell id="g8ziXp4ras8LX38dk12a-52" value="Sauce()&lt;div&gt;//extends Toppings&lt;/div&gt;" style="text;html=1;align=center;verticalAlign=middle;whiteSpace=wrap;rounded=0;" parent="WIyWlLk6GJQsqaUBKTNV-1" vertex="1">
          <mxGeometry x="1765" y="520" width="60" height="30" as="geometry" />
        </mxCell>
        <mxCell id="g8ziXp4ras8LX38dk12a-54" value="name : String&lt;div&gt;----------------------------------------------&lt;/div&gt;&lt;div&gt;getSauce()&lt;/div&gt;&lt;div&gt;calcSaucePrice()&lt;/div&gt;&lt;div&gt;//return price 0&lt;/div&gt;" style="text;html=1;align=left;verticalAlign=middle;whiteSpace=wrap;rounded=0;" parent="WIyWlLk6GJQsqaUBKTNV-1" vertex="1">
          <mxGeometry x="1700" y="525" width="190" height="150" as="geometry" />
        </mxCell>
        <mxCell id="g8ziXp4ras8LX38dk12a-55" value="" style="endArrow=none;html=1;rounded=0;entryX=-0.004;entryY=0.704;entryDx=0;entryDy=0;entryPerimeter=0;" parent="WIyWlLk6GJQsqaUBKTNV-1" edge="1">
          <mxGeometry width="50" height="50" relative="1" as="geometry">
            <mxPoint x="1650" y="620" as="sourcePoint" />
            <mxPoint x="1699.2400000000002" y="620.8000000000002" as="targetPoint" />
          </mxGeometry>
        </mxCell>
        <mxCell id="g8ziXp4ras8LX38dk12a-56" value="Drink()" style="text;html=1;align=center;verticalAlign=middle;whiteSpace=wrap;rounded=0;" parent="WIyWlLk6GJQsqaUBKTNV-1" vertex="1">
          <mxGeometry x="260" y="252.5" width="60" height="30" as="geometry" />
        </mxCell>
        <mxCell id="g8ziXp4ras8LX38dk12a-60" value="" style="edgeStyle=orthogonalEdgeStyle;rounded=0;orthogonalLoop=1;jettySize=auto;html=1;entryX=0;entryY=0.846;entryDx=0;entryDy=0;entryPerimeter=0;" parent="WIyWlLk6GJQsqaUBKTNV-1" source="g8ziXp4ras8LX38dk12a-57" target="g8ziXp4ras8LX38dk12a-4" edge="1">
          <mxGeometry relative="1" as="geometry">
            <mxPoint x="790" y="150" as="targetPoint" />
          </mxGeometry>
        </mxCell>
        <mxCell id="g8ziXp4ras8LX38dk12a-57" value="size : String&lt;div&gt;-----------------------------------------------&lt;/div&gt;&lt;div&gt;getDrink()&lt;/div&gt;&lt;div&gt;calcDrinkPrice()&lt;br&gt;&lt;div&gt;Override toString()&lt;/div&gt;&lt;/div&gt;" style="text;html=1;align=left;verticalAlign=middle;whiteSpace=wrap;rounded=0;" parent="WIyWlLk6GJQsqaUBKTNV-1" vertex="1">
          <mxGeometry x="195" y="242.5" width="190" height="200" as="geometry" />
        </mxCell>
        <mxCell id="g8ziXp4ras8LX38dk12a-61" value="Order()" style="text;html=1;align=center;verticalAlign=middle;whiteSpace=wrap;rounded=0;" parent="WIyWlLk6GJQsqaUBKTNV-1" vertex="1">
          <mxGeometry x="530" y="-30" width="60" height="30" as="geometry" />
        </mxCell>
        <mxCell id="g8ziXp4ras8LX38dk12a-63" value="&lt;div&gt;sandwiches : List&amp;lt;String&amp;gt;&lt;/div&gt;&lt;div&gt;drink : List&amp;lt;String&amp;gt;&lt;/div&gt;&lt;div&gt;chips : List&amp;lt;String&amp;gt;&lt;/div&gt;&lt;div&gt;----------------------------------------------&lt;/div&gt;getOrder()&lt;div&gt;addSandwich()&lt;/div&gt;&lt;div&gt;addDrink()&lt;/div&gt;&lt;div&gt;addChips()&lt;/div&gt;&lt;div&gt;checkoutOrder()&lt;/div&gt;&lt;div&gt;cancelOrder()&lt;/div&gt;" style="text;html=1;align=left;verticalAlign=middle;whiteSpace=wrap;rounded=0;" parent="WIyWlLk6GJQsqaUBKTNV-1" vertex="1">
          <mxGeometry x="465" y="27.5" width="190" height="165" as="geometry" />
        </mxCell>
        <mxCell id="g8ziXp4ras8LX38dk12a-65" value="OrderFileManager()" style="text;html=1;align=center;verticalAlign=middle;whiteSpace=wrap;rounded=0;" parent="WIyWlLk6GJQsqaUBKTNV-1" vertex="1">
          <mxGeometry x="260" y="5" width="60" height="30" as="geometry" />
        </mxCell>
        <mxCell id="g8ziXp4ras8LX38dk12a-66" value="&lt;div&gt;----------------------------------------------&lt;/div&gt;&lt;div&gt;saveReceipt()&lt;/div&gt;" style="text;html=1;align=left;verticalAlign=middle;whiteSpace=wrap;rounded=0;" parent="WIyWlLk6GJQsqaUBKTNV-1" vertex="1">
          <mxGeometry x="201" y="27.5" width="190" height="125" as="geometry" />
        </mxCell>
        <mxCell id="g8ziXp4ras8LX38dk12a-73" value="Chips" style="text;html=1;align=center;verticalAlign=middle;whiteSpace=wrap;rounded=0;" parent="WIyWlLk6GJQsqaUBKTNV-1" vertex="1">
          <mxGeometry x="525" y="285" width="60" height="30" as="geometry" />
        </mxCell>
        <mxCell id="g8ziXp4ras8LX38dk12a-74" value="size : String&lt;br&gt;&lt;div&gt;----------------------------------------------&lt;/div&gt;&lt;div&gt;getChips()&lt;/div&gt;&lt;div&gt;calcChipsPrice()&lt;/div&gt;&lt;div&gt;Override toString()&lt;/div&gt;" style="text;html=1;align=left;verticalAlign=middle;whiteSpace=wrap;rounded=0;" parent="WIyWlLk6GJQsqaUBKTNV-1" vertex="1">
          <mxGeometry x="460" y="320" width="190" height="95" as="geometry" />
        </mxCell>
      </root>
    </mxGraphModel>
  </diagram>
</mxfile>
